<svg xmlns="http://www.w3.org/2000/svg" viewBox="0 0 680 78"><defs><style>.a{fill:#a6a6a6;}.b{fill:none;stroke:#d9d9d9;stroke-miterlimit:10;}</style></defs><title>pre-upload-img-gray</title><path class="a" d="M270.83,42.49a1.68,1.68,0,0,1,.16-.77,1.54,1.54,0,0,1,.06-.38,2.08,2.08,0,0,0,.07-.29,3.19,3.19,0,0,1,.25-1.06,38.83,38.83,0,0,0,1.54-4.51.35.35,0,0,1,.13-.27.7.7,0,0,1,.38-.14,1.46,1.46,0,0,1,.35-.07.46.46,0,0,1,.34.15,4,4,0,0,1,.4.52.78.78,0,0,1,.19.58,3.46,3.46,0,0,1-.42,1.47,8.13,8.13,0,0,0-.54,1.6,13.79,13.79,0,0,0-.61,1.6c0,.13-.11.39-.19.77a3.12,3.12,0,0,1-.35.93,7.91,7.91,0,0,1-.35,1.25c-.11.23-.23.35-.36.35s-.35-.15-.6-.45A1.74,1.74,0,0,1,270.83,42.49ZM274,30q-.17-.54,0-.54c.17,0,.36-.21.59-.56a1.55,1.55,0,0,0,.3-.88.33.33,0,0,1,.1-.24.4.4,0,0,1,.22-.15.94.94,0,0,1,.45-.16c.36,0,.69.26,1,.77a1.76,1.76,0,0,1,.19.74,1.22,1.22,0,0,1-.16.59,4.09,4.09,0,0,1-.57.78c-.36.49-.71.74-1,.74a1.17,1.17,0,0,1-.7-.32A1.77,1.77,0,0,1,274,30Z" transform="translate(0 0)"/><path class="a" d="M290.49,42.67a4,4,0,0,1-.4-2l0-1.47a2.35,2.35,0,0,0,0-.54c0-.11-.1-.16-.18-.16a4.48,4.48,0,0,0-1.78,1.09,24.92,24.92,0,0,0-2.73,2.59l-.43.46a2.39,2.39,0,0,1-.5.45.75.75,0,0,1-.42.14.8.8,0,0,1-.54-.22l-.35-.29a.57.57,0,0,1-.23-.45L283,42l.73-2.12c.47-1.08.75-1.77.84-2.06s.07-.42,0-.4a2.45,2.45,0,0,0-.8.3,1.57,1.57,0,0,0-.64.53s-.18.11-.41.34a4.05,4.05,0,0,1-.61.49,13,13,0,0,1-1.41,1.51l-.77.73a9.32,9.32,0,0,0-1.34,1.57,2.56,2.56,0,0,1-.51.58,1.61,1.61,0,0,1-1.38-1.57,11.61,11.61,0,0,1,.39-2.11c.19-.73.29-1.17.32-1.35l.16-.64a4.78,4.78,0,0,1,.28-1c.15-.38.41-1,.77-1.82a4.31,4.31,0,0,0,.32-1.35.81.81,0,0,1,.29-.65,1,1,0,0,1,.64-.24,1,1,0,0,1,.77.35,1.35,1.35,0,0,1,.32.93,2.8,2.8,0,0,1-.26,1.12l-.35.86a16.14,16.14,0,0,0-.66,1.65,11.51,11.51,0,0,0-.4,1.26c0,.07.1.05.23,0s.28-.22.45-.37a5.71,5.71,0,0,1,.67-.58,15.72,15.72,0,0,1,2.29-1.73,10.13,10.13,0,0,1,2-1,1.4,1.4,0,0,1,.62.11,2.05,2.05,0,0,1,.47.38c.17.19.29.32.38.4a1.16,1.16,0,0,1,.29.84,1.51,1.51,0,0,1-.07.41c-.08.3-.19.66-.33,1.09s-.24.74-.31.93l.8-.67c.39-.32.74-.62,1.06-.9a4.78,4.78,0,0,1,2.53-1.25,1.38,1.38,0,0,1,1.15.71,1.19,1.19,0,0,1,.35.59,4.19,4.19,0,0,1,.07.81v.8a6.74,6.74,0,0,1,0,.77c0,.17.05.5.08,1a2.11,2.11,0,0,0,.14.84,2.41,2.41,0,0,0,1.09.35c.38.06.58.23.58.51s-.14.38-.42.58a1.93,1.93,0,0,1-1,.25,2.78,2.78,0,0,1-1.06-.19A1.86,1.86,0,0,1,290.49,42.67Z" transform="translate(0 0)"/><path class="a" d="M296.56,50.67a6.34,6.34,0,0,1-1.12-.37,4.83,4.83,0,0,1-1.2-1.42,2.51,2.51,0,0,1-.5-1.4c0-.08.07-.13.22-.13a1.28,1.28,0,0,1,.5.13,1,1,0,0,1,.4.32,4.1,4.1,0,0,0,1.06,1,1.46,1.46,0,0,0,1,.35,2.1,2.1,0,0,0,1.26-.73,6.86,6.86,0,0,0,1-1.7c.23-.64.42-1.22.56-1.76s.3-1.21.5-2,.25-1.15.32-1.38l.16-.83c0-.15,0-.24,0-.26l-.07-.06-2.08,1.12a7.13,7.13,0,0,1-2.21.38,3,3,0,0,1-.89-.13,1.62,1.62,0,0,1-.69-.83,2,2,0,0,1-.27-1.15,6.07,6.07,0,0,1,.86-1.86c.56-.94.88-1.39,1-1.37s.16-.11.16-.32.63-.74,1.76-1.64A12.78,12.78,0,0,1,300.3,33a4,4,0,0,1,1.63-.59l.4,0h.24l.26.14a3.09,3.09,0,0,0,.51.24A2.67,2.67,0,0,1,304.52,34a3.91,3.91,0,0,1,.58,1.72,5.12,5.12,0,0,1-.32,1.38c-.17.45-.34.66-.51.64a1,1,0,0,0-.63.22c-.24.18-.36.3-.36.39a1.7,1.7,0,0,1-.52.93l-.48,2.24c-.34,1.51-.52,2.38-.54,2.59a22.6,22.6,0,0,1-.8,2.56A5.54,5.54,0,0,1,300.6,48a5.35,5.35,0,0,1-.65,1,3.92,3.92,0,0,1-1.14,1.25,2.79,2.79,0,0,1-1.23.54A3.61,3.61,0,0,1,296.56,50.67Zm.25-10.39a4.13,4.13,0,0,0,1.92-.54l.45-.23.35-.16c.39-.17.67-.3.87-.41a1,1,0,0,0,.41-.42,7.91,7.91,0,0,0,.64-1.57.84.84,0,0,1,.18-.3.5.5,0,0,1,.27-.21H302a2.05,2.05,0,0,1,.51.13.4.4,0,0,0,.22-.32,1.55,1.55,0,0,0,0-.58,1.65,1.65,0,0,0-.34-.6,2.21,2.21,0,0,0-.72-.61,1.17,1.17,0,0,0-.29-.07,1.32,1.32,0,0,0-.73.31,9.26,9.26,0,0,0-1.12,1,2.49,2.49,0,0,0-.29.25,2.68,2.68,0,0,1-.26.23A19.65,19.65,0,0,0,297,38.41q-.82,1-.69,1.65C296.29,40.21,296.47,40.28,296.81,40.28Z" transform="translate(0 0)"/><path class="a" d="M317.42,44a2.38,2.38,0,0,1-1.73-.74,2.08,2.08,0,0,1-1-1.63,3.65,3.65,0,0,1-.19-1,12.08,12.08,0,0,1,.29-1.79c.19-.88.35-1.51.48-1.91a5.1,5.1,0,0,1,.73-1.36,11.32,11.32,0,0,1,.58-1.34,5.28,5.28,0,0,1,.51-.9c.08-.1.24-.32.46-.65a6.33,6.33,0,0,1,.69-.85l.87-1.15a2.37,2.37,0,0,0,.6-.52,8.34,8.34,0,0,1,1.86-1.45,5.5,5.5,0,0,1,2.21-.88,2,2,0,0,1,.67-.13c.23,0,.33.05.29.16l.13.13a.56.56,0,0,0,.32.13c.06,0,.13.1.2.24l.18.3a.76.76,0,0,1,0,.48,3,3,0,0,1-.51.58,2.47,2.47,0,0,1-.63.36.25.25,0,0,1-.3-.11c0-.06,0-.11-.1-.16a.49.49,0,0,0-.19-.06c-.21,0-.72.19-1.52.7a8.77,8.77,0,0,0-1.87,1.54,3.36,3.36,0,0,0-.8.89q-.36.36-.66.72l-.4.5c0,.09.11.13.26.13a.77.77,0,0,0,.38-.1.52.52,0,0,0,.23-.16q0-.12.72-.33a8.07,8.07,0,0,1,1.45-.28,1.32,1.32,0,0,1,.39-.06,8.23,8.23,0,0,1,1.21.19,5.51,5.51,0,0,1,1,.29,2.09,2.09,0,0,1,.61.58,3.45,3.45,0,0,1,.85,1.13,3.4,3.4,0,0,1,.24,1.33,4.18,4.18,0,0,1-.11,1,2.6,2.6,0,0,1-.43.82,17.08,17.08,0,0,1-1.11,1.52,5.88,5.88,0,0,1-1.07,1.1,1.42,1.42,0,0,0-.22.13l-.13.09c-.05.24-.55.62-1.52,1.16a11,11,0,0,1-2.48,1A5,5,0,0,1,317.42,44Zm0-1.67A3.51,3.51,0,0,0,318.7,42a2.83,2.83,0,0,1,.83-.16l.53-.35,1-.61a10,10,0,0,0,2.48-2.21,3.73,3.73,0,0,0,.94-2.14.93.93,0,0,0,0-.26v-.06a1.94,1.94,0,0,0-.08-.45,1.53,1.53,0,0,1-.08-.35,1.28,1.28,0,0,1-.37-.07l-.53-.12a3.16,3.16,0,0,0-.57-.07,15.91,15.91,0,0,0-2.5.45l-.4.1-.56.12-.54.21a3.68,3.68,0,0,1-.55.21,2.31,2.31,0,0,1-.86.45c-.26,0-.47.22-.64.61a12.77,12.77,0,0,0-.61,2.17,16.05,16.05,0,0,0-.26,1.63.76.76,0,0,0,.13.48.65.65,0,0,0,.19.47,1.39,1.39,0,0,0,.48.17A5.88,5.88,0,0,0,317.45,42.36Z" transform="translate(0 0)"/><path class="a" d="M330.19,45.58c-.19-.14-.43-.34-.71-.59l-.22-.48a1.73,1.73,0,0,1-.16-.74c0-.08,0-.28.06-.58a3.17,3.17,0,0,1,.39-1.72,14.15,14.15,0,0,1,1.6-2.92c.81-1.21,1.51-2.19,2.11-2.94a1.23,1.23,0,0,0,.35-.67,1,1,0,0,0-.19-.51c-.13-.22-.29-.46-.48-.74a2.69,2.69,0,0,0-.24-.48c-.1-.15-.12-.22-.08-.22l-.1-.13-.16-.32a1.81,1.81,0,0,1-.48-1.38,3.81,3.81,0,0,1,.48-1.82,5.58,5.58,0,0,1,1.14-1.75,2.82,2.82,0,0,1,1.58-.72c.6.09,1.35.22,2.26.4a10.85,10.85,0,0,1,2.1.6,5.47,5.47,0,0,1,1.34.84c.51.42.79.71.83.88a.38.38,0,0,0,.1.21l.16.27a2.51,2.51,0,0,1,.19,1.06,2.71,2.71,0,0,1-.35,1.47,4.68,4.68,0,0,1-1.12,1,3.07,3.07,0,0,0-.34.28,1.1,1.1,0,0,1-.49.29c-.28.37-.47.55-.58.55a1,1,0,0,0-.27-.12q-.12,0-.12.12c0,.08-.3.25-.86.49s-.89.34-1,.27h0a.72.72,0,0,0-.36.13c-.1,0-.12.06,0,.24a4.25,4.25,0,0,0,.53.79,8.44,8.44,0,0,1,1.25,3.61,1.59,1.59,0,0,1-.25,1,10.54,10.54,0,0,1-1.32,2.27c-.47.6-.84.88-1.12.84l-.44.28a.5.5,0,0,1-.26.29.61.61,0,0,1-.39.07l-.09,0a1.75,1.75,0,0,0-.9.35,3,3,0,0,1-1,.44,4.06,4.06,0,0,1-1.1.16,1.53,1.53,0,0,1-.61-.09A1.17,1.17,0,0,1,330.19,45.58Zm2.52-1.84a12,12,0,0,0,1.83-1,7.14,7.14,0,0,0,1.42-1.5,2.59,2.59,0,0,0,.47-1.44,2.12,2.12,0,0,0-.2-.9c-.42-.87-.69-1.38-.79-1.53a1.88,1.88,0,0,0-.65-.64,2,2,0,0,0-.28.22,1.3,1.3,0,0,0-.35.48,7.72,7.72,0,0,0-.9,1.31l-.71.71a2.24,2.24,0,0,1-.19.54c-.13.3-.27.61-.44.93a7.86,7.86,0,0,0-.69,1.49,4,4,0,0,0-.24,1.23c0,.34.09.53.29.58A3.54,3.54,0,0,0,332.71,43.74Zm4.87-10.82a.5.5,0,0,1,.51.29c0,.09.29,0,.75-.3A6.88,6.88,0,0,0,340,32a1.45,1.45,0,0,0,.19-.37.89.89,0,0,0,.07-.36l-.07-.52A.89.89,0,0,0,340,30a3.75,3.75,0,0,0-1.24-.64,7.47,7.47,0,0,0-2.52-.51,2.31,2.31,0,0,0-2.47,1.82,3.6,3.6,0,0,0-.19,1.06,2.21,2.21,0,0,0,.26,1,.67.67,0,0,1,.36.29.65.65,0,0,1,.12.26.38.38,0,0,0,.06.19.22.22,0,0,0,.19.09.5.5,0,0,0,.21.26.69.69,0,0,0,.43.13,2,2,0,0,0,1-.35A2.32,2.32,0,0,1,337.58,32.92Z" transform="translate(0 0)"/><path class="a" d="M347.31,43.67a6.6,6.6,0,0,1-1.31-.86,6.17,6.17,0,0,1-1.43-2.19,7.34,7.34,0,0,1-.53-2.71,8.45,8.45,0,0,1,.07-.92,11.89,11.89,0,0,1,1.52-4,13,13,0,0,1,2.73-3.34,10.32,10.32,0,0,1,1.52-1.14,5.94,5.94,0,0,1,1.62-.62,5.39,5.39,0,0,1,1.41-.13,3.48,3.48,0,0,1,1.26.25,4.19,4.19,0,0,1,1.11.63,1,1,0,0,1,.44.69c0,.19,0,.31-.05.35s-.12,0-.27,0h-.32l.32.92a4.24,4.24,0,0,1,.23.71,3.65,3.65,0,0,1,.09.77,12.66,12.66,0,0,1-.35,2.22,12.61,12.61,0,0,1-.61,2.22,1.65,1.65,0,0,0-.13.68l-.8,1.76a.79.79,0,0,0-.19.22.18.18,0,0,0,0,.22,2.47,2.47,0,0,1-.33.72c-.22.4-.37.6-.43.6h-.1s-.06,0-.06.11a2.18,2.18,0,0,1-.43.68,13.68,13.68,0,0,1-1,1.08,5.8,5.8,0,0,1-1.42,1,3.28,3.28,0,0,1-1.43.53A3,3,0,0,1,347.31,43.67Zm2.3-2a7.23,7.23,0,0,0,1.36-1.3,6.94,6.94,0,0,0,1.11-1.68,5.35,5.35,0,0,0,.52-.93c.14-.32.37-.94.69-1.88a2.47,2.47,0,0,0,.34-.82,4.41,4.41,0,0,0,.11-.91,8.32,8.32,0,0,1,.16-2c0-.59,0-1,0-1.13a1,1,0,0,0-.26-.5,1.19,1.19,0,0,0-.77-.29,2.87,2.87,0,0,0-.83.24,6.81,6.81,0,0,0-.86.4.89.89,0,0,1-.29.07.74.74,0,0,1-.34-.08.24.24,0,0,1-.14-.21c0-.15-.06-.22-.19-.22a1.26,1.26,0,0,0-.71.38,9.19,9.19,0,0,0-1,1,8.15,8.15,0,0,0-.94,1.14,2.47,2.47,0,0,0-.43.75A1.25,1.25,0,0,1,347,34q-.12.26-.18.42a9.82,9.82,0,0,0-.61,1.23,10.24,10.24,0,0,0-.48,1.26v1.73a5.8,5.8,0,0,0,.1,1.25,3.44,3.44,0,0,0,.35.93,3,3,0,0,0,.41.54c.2.22.31.35.36.42a1.6,1.6,0,0,0,.37.3.64.64,0,0,0,.36.08,3.43,3.43,0,0,0,.68-.09A1.63,1.63,0,0,0,349.61,41.66Z" transform="translate(0 0)"/><path class="a" d="M365.77,44.51a1.53,1.53,0,0,1-.46-.1c-.18-.06-.37-.14-.56-.22a8.81,8.81,0,0,1-1.95-1.41c-.86-.75-1.28-1.25-1.28-1.51a.14.14,0,0,0-.16-.16,1.29,1.29,0,0,1-.12-.12.38.38,0,0,1-.08-.23.31.31,0,0,0-.09-.22.3.3,0,0,0-.23-.1l-.67.56c-.34.29-.69.62-1.05,1-.69.68-1.16,1.13-1.41,1.36a1.11,1.11,0,0,1-.61.33,1.45,1.45,0,0,1-.88-.4,1.06,1.06,0,0,1-.5-.78c.11-.15.38-.45.82-.91s.9-.9,1.39-1.33l2.05-2L359.63,37a19.1,19.1,0,0,1-.83-2c-.13-.17-.23-.31-.31-.43a.65.65,0,0,1-.11-.3,1,1,0,0,1,.26-.48q.35-.36.54-.36a.92.92,0,0,1,.45.2c.17,0,.44.35.81,1.07a3.91,3.91,0,0,1,.56,1.49c0,.27.1.41.29.41a3.16,3.16,0,0,0,1.25-.61c.23-.21.42-.39.56-.54l.27-.29,1.2-.86a7.59,7.59,0,0,1,1-.67.5.5,0,0,1,.26-.1,1,1,0,0,1,.73.42,1.28,1.28,0,0,1,.36.86.9.9,0,0,1-.2.61,3,3,0,0,1-.83.57c-.11.09-.44.34-1,.74s-1.25,1-2.08,1.66l-.83.68.51.86a2.85,2.85,0,0,0,.83,1.18,6.68,6.68,0,0,0,1.27,1.12,5.25,5.25,0,0,0,1.13.77.65.65,0,0,1,.31.13,1.82,1.82,0,0,0,.36.19,1.2,1.2,0,0,1,.39.87q0,.51-.39.51A.91.91,0,0,1,365.77,44.51Z" transform="translate(0 0)"/><path class="a" d="M374.83,43.93a9,9,0,0,1,.29-1.6,23.09,23.09,0,0,1,.51-2.34l.22-1a8.87,8.87,0,0,0,.37-1c.1-.33.15-.54.18-.62a4.33,4.33,0,0,0-.53.06,4.48,4.48,0,0,0-.88.26,8.29,8.29,0,0,1-1.89.29,2.41,2.41,0,0,1-1.17-.26,2.23,2.23,0,0,1-.81-.83,1.33,1.33,0,0,1-.28-.55,2.85,2.85,0,0,1-.11-.76c0-.3,0-.49.16-.58s.21-.45.31-.64l.24-.51a4.61,4.61,0,0,0,.35-.8.46.46,0,0,1,.08-.21.6.6,0,0,0,.08-.24,30.34,30.34,0,0,1,1.77-2.8,24.33,24.33,0,0,1,2-2.67,2.65,2.65,0,0,1,.56-.19c.18-.05.31,0,.37,0a6.3,6.3,0,0,1,.26.8q.12.51,0,.51l-.1,0a.14.14,0,0,0-.06.13,5.46,5.46,0,0,1-1,1.41,41.27,41.27,0,0,0-2.91,4.48,6.6,6.6,0,0,0-.41,1.53.36.36,0,0,0,.09.26,1.65,1.65,0,0,0,.48.06,7.68,7.68,0,0,0,2.08-.38,11.82,11.82,0,0,0,1.89-.48,1,1,0,0,0,.46-.1c.14-.06.21-.13.21-.22a2.53,2.53,0,0,1,.24-.59,6.59,6.59,0,0,0,.31-.72l.47-1c.43-.9.73-1.48.9-1.76.39-.83.64-1.42.77-1.76s.27-.64.37-.82.16-.27.21-.27a.78.78,0,0,1,.38.13.68.68,0,0,1,.32.35,2.39,2.39,0,0,1,.21.26.54.54,0,0,1,.08.28,1.53,1.53,0,0,1-.2.55,4.42,4.42,0,0,1-.22.7,5.91,5.91,0,0,1-.35.74l-.51,1c-.56,1.09-1.19,2.45-1.91,4.08s-1.19,2.82-1.42,3.57-.5,1.46-.67,2a4.83,4.83,0,0,0-.26,1.22,1.32,1.32,0,0,0,.16.61,1.42,1.42,0,0,1-.29,1,.86.86,0,0,1-.67.42.47.47,0,0,1-.48-.42A.92.92,0,0,1,374.83,43.93Z" transform="translate(0 0)"/><path class="a" d="M384.36,45.58c-.19-.14-.42-.34-.7-.59l-.23-.48a1.89,1.89,0,0,1-.16-.74c0-.08,0-.28.07-.58a3.27,3.27,0,0,1,.38-1.72,14.65,14.65,0,0,1,1.6-2.92c.81-1.21,1.52-2.19,2.11-2.94a1.19,1.19,0,0,0,.36-.67,1.08,1.08,0,0,0-.2-.51,7.48,7.48,0,0,0-.48-.74,2.65,2.65,0,0,0-.23-.48c-.1-.15-.13-.22-.09-.22l-.09-.13a2.32,2.32,0,0,1-.16-.32,1.81,1.81,0,0,1-.48-1.38,3.81,3.81,0,0,1,.48-1.82,5.57,5.57,0,0,1,1.13-1.75,2.85,2.85,0,0,1,1.59-.72c.6.09,1.35.22,2.25.4a10.85,10.85,0,0,1,2.1.6,5.49,5.49,0,0,1,1.35.84,2.74,2.74,0,0,1,.83.88.43.43,0,0,0,.09.21,2.09,2.09,0,0,1,.16.27,2.51,2.51,0,0,1,.19,1.06,2.62,2.62,0,0,1-.35,1.47,4.33,4.33,0,0,1-1.12,1c-.06,0-.17.14-.33.28a1.13,1.13,0,0,1-.5.29c-.28.37-.47.55-.58.55a.77.77,0,0,0-.27-.12c-.07,0-.11,0-.11.12s-.31.25-.86.49-.9.34-1,.27h0a.69.69,0,0,0-.35.13c-.11,0-.12.06-.05.24a3.79,3.79,0,0,0,.53.79,8.58,8.58,0,0,1,1.25,3.61,1.59,1.59,0,0,1-.26,1,10.14,10.14,0,0,1-1.31,2.27c-.47.6-.84.88-1.12.84l-.45.28a.47.47,0,0,1-.26.29.57.57,0,0,1-.38.07l-.1,0a1.72,1.72,0,0,0-.89.35,3.22,3.22,0,0,1-1,.44,4.06,4.06,0,0,1-1.1.16,1.53,1.53,0,0,1-.61-.09A1.2,1.2,0,0,1,384.36,45.58Zm2.53-1.84a12.42,12.42,0,0,0,1.82-1,7.22,7.22,0,0,0,1.43-1.5,2.58,2.58,0,0,0,.46-1.44,2.11,2.11,0,0,0-.19-.9c-.43-.87-.69-1.38-.8-1.53a1.78,1.78,0,0,0-.64-.64,1.88,1.88,0,0,0-.29.22,1.42,1.42,0,0,0-.35.48,9.1,9.1,0,0,0-.9,1.31l-.7.71a2.24,2.24,0,0,1-.19.54q-.19.45-.45.93a7.86,7.86,0,0,0-.69,1.49,4,4,0,0,0-.24,1.23c0,.34.1.53.29.58A3.53,3.53,0,0,0,386.89,43.74Zm4.86-10.82a.52.52,0,0,1,.52.29c0,.09.29,0,.75-.3a6.88,6.88,0,0,0,1.2-.95,1.86,1.86,0,0,0,.19-.37,1.09,1.09,0,0,0,.06-.36l-.06-.52a.93.93,0,0,0-.21-.73,3.77,3.77,0,0,0-1.23-.64,7.52,7.52,0,0,0-2.53-.51A2.3,2.3,0,0,0,388,30.65a3.3,3.3,0,0,0-.19,1.06,2.2,2.2,0,0,0,.25,1,.69.69,0,0,1,.37.29.59.59,0,0,1,.11.26.32.32,0,0,0,.07.19.21.21,0,0,0,.19.09.45.45,0,0,0,.21.26.67.67,0,0,0,.43.13,2,2,0,0,0,1-.35A2.27,2.27,0,0,1,391.75,32.92Z" transform="translate(0 0)"/><path class="a" d="M401.48,43.67a6.91,6.91,0,0,1-1.31-.86,6.15,6.15,0,0,1-1.42-2.19,7.34,7.34,0,0,1-.53-2.71c0-.19,0-.5.06-.92a12.11,12.11,0,0,1,1.52-4,12.83,12.83,0,0,1,2.74-3.34,9.82,9.82,0,0,1,1.52-1.14,6,6,0,0,1,1.61-.62,5.39,5.39,0,0,1,1.41-.13,3.49,3.49,0,0,1,1.27.25,4.29,4.29,0,0,1,1.1.63,1,1,0,0,1,.45.69.75.75,0,0,1,0,.35s-.12,0-.27,0h-.32l.32.92a4.29,4.29,0,0,1,.22.71,3.13,3.13,0,0,1,.1.77,13.75,13.75,0,0,1-.35,2.22,13.59,13.59,0,0,1-.61,2.22,1.5,1.5,0,0,0-.13.68l-.8,1.76a.66.66,0,0,0-.19.22.18.18,0,0,0,0,.22,2.34,2.34,0,0,1-.34.72c-.22.4-.36.6-.43.6H407c-.05,0-.07,0-.07.11a2,2,0,0,1-.43.68,12,12,0,0,1-1,1.08,5.43,5.43,0,0,1-1.42,1,3.25,3.25,0,0,1-1.42.53A3.07,3.07,0,0,1,401.48,43.67Zm2.31-2a7.54,7.54,0,0,0,1.36-1.3,6.6,6.6,0,0,0,1.1-1.68,5.41,5.41,0,0,0,.53-.93c.14-.32.37-.94.69-1.88a2.27,2.27,0,0,0,.33-.82,3.86,3.86,0,0,0,.12-.91,8.32,8.32,0,0,1,.16-2A11.13,11.13,0,0,0,408,31a1,1,0,0,0-.25-.5,1.21,1.21,0,0,0-.77-.29,2.79,2.79,0,0,0-.83.24,6.45,6.45,0,0,0-.87.4.8.8,0,0,1-.28.07.71.71,0,0,1-.34-.08.23.23,0,0,1-.15-.21c0-.15-.06-.22-.19-.22a1.24,1.24,0,0,0-.7.38,9.19,9.19,0,0,0-1,1,8.2,8.2,0,0,0-.95,1.14,2.75,2.75,0,0,0-.43.75,1,1,0,0,1-.11.35c-.07.17-.13.31-.17.42a8.59,8.59,0,0,0-.61,1.23A8.78,8.78,0,0,0,400,37v1.73a6.67,6.67,0,0,0,.09,1.25,3.49,3.49,0,0,0,.36.93,3,3,0,0,0,.41.54,4.76,4.76,0,0,1,.35.42,1.6,1.6,0,0,0,.37.3.7.7,0,0,0,.37.08,3.35,3.35,0,0,0,.67-.09A1.65,1.65,0,0,0,403.79,41.66Z" transform="translate(0 0)"/><polyline class="b" points="679.5 10.5 679.5 0.5 669.5 0.5"/><polyline class="b" points="679.5 67.5 679.5 77.5 669.5 77.5"/><polyline class="b" points="0.5 10.5 0.5 0.5 10.5 0.5"/><polyline class="b" points="0.5 67.5 0.5 77.5 10.5 77.5"/></svg>